<svg width="26" height="26" viewBox="0 0 26 26" fill="none" xmlns="http://www.w3.org/2000/svg">
<path d="M16.5662 25.0826H9.26642C3.18326 25.0826 0.75 22.6494 0.75 16.5662V9.26642C0.75 3.18326 3.18326 0.75 9.26642 0.75H16.5662C22.6494 0.75 25.0826 3.18326 25.0826 9.26642V16.5662C25.0826 22.6494 22.6494 25.0826 16.5662 25.0826Z" stroke="white" stroke-width="1.5" stroke-linecap="round" stroke-linejoin="round"/>
<path d="M13.5246 18.9992C16.5483 18.9992 18.9995 16.5481 18.9995 13.5244C18.9995 10.5007 16.5483 8.04956 13.5246 8.04956C10.501 8.04956 8.0498 10.5007 8.0498 13.5244C8.0498 16.5481 10.501 18.9992 13.5246 18.9992Z" stroke="white" stroke-width="1.5" stroke-miterlimit="10"/>
<circle cx="19.6077" cy="6.22509" r="1.82495" fill="white"/>
</svg>
