<svg width="34" height="34" viewBox="0 0 34 34" fill="none" xmlns="http://www.w3.org/2000/svg">
<g clip-path="url(#clip0_2188_896)">
<path d="M17 34C26.3888 34 34 26.3888 34 17C34 7.61116 26.3888 0 17 0C7.61116 0 0 7.61116 0 17C0 26.3888 7.61116 34 17 34Z" fill="#3EA3DC"/>
<path d="M25.4449 20.6331C25.3348 20.4648 24.603 20.1086 24.603 20.1086C24.3116 19.9661 22.168 18.917 21.7665 18.768C21.4232 18.645 21.0282 18.5025 20.6785 19.0271C20.4129 19.4221 19.6358 20.3288 19.3767 20.6137C19.2019 20.8145 19.0335 20.8792 18.6385 20.685C18.5737 20.6526 16.6632 19.8366 15.3485 18.6709C14.1828 17.6411 13.3733 16.3653 13.0754 15.8667C12.8941 15.5623 13.0106 15.4198 13.2373 15.1931C13.3733 15.0571 13.9821 14.3253 14.0274 14.2606C14.1245 14.1116 14.2929 13.7619 14.2929 13.7619C14.4678 13.4187 14.3577 13.1208 14.2605 12.92C14.1893 12.784 13.0948 10.1352 12.9847 9.88915C12.6739 9.14438 12.3371 9.10553 12.0198 9.11848C11.8644 9.13143 10.4072 9.13791 9.9474 9.64305L9.86321 9.72724C9.40988 10.2065 8.46436 11.2103 8.46436 13.1467C8.46436 13.5935 8.53559 14.0598 8.68455 14.5779C8.95655 15.5105 9.48112 16.5337 10.1805 17.4663C10.1935 17.4857 11.2621 18.9623 11.7931 19.5775C13.4769 21.5139 15.3745 22.9451 17.2914 23.6964C19.7394 24.6549 20.7885 24.875 21.3844 24.875C21.6434 24.875 22.1939 24.7455 22.3105 24.7326C23.0617 24.6678 24.8362 23.7417 25.2118 22.699C25.5745 21.7147 25.5809 20.8533 25.4449 20.6331Z" fill="white"/>
</g>
<defs>
<clipPath id="clip0_2188_896">
<rect width="34" height="34" fill="white"/>
</clipPath>
</defs>
</svg>
