<svg width="30" height="30" viewBox="0 0 30 30" fill="none" xmlns="http://www.w3.org/2000/svg">
<path d="M17.0329 11.3147V14.8429H20.1961C20.4394 14.8429 20.5611 15.0862 20.5611 15.3296L20.0744 17.6412C20.0744 17.7628 19.8311 17.8845 19.7095 17.8845H17.0329V26.7659H13.383V18.0062H11.3147C11.0714 18.0062 10.9497 17.8845 10.9497 17.6412V15.3296C10.9497 15.0862 11.0714 14.9646 11.3147 14.9646H13.383V10.9497C13.383 8.88143 14.9646 7.2998 17.0329 7.2998H20.3178C20.5611 7.2998 20.6828 7.42147 20.6828 7.66479V10.5847C20.6828 10.828 20.5611 10.9497 20.3178 10.9497H17.3979C17.1545 10.9497 17.0329 11.0714 17.0329 11.3147Z" stroke="white" stroke-width="1.5" stroke-miterlimit="10" stroke-linecap="round"/>
<path d="M18.2493 26.766H10.9495C4.86637 26.766 2.43311 24.3327 2.43311 18.2496V10.9498C2.43311 4.86661 4.86637 2.43335 10.9495 2.43335H18.2493C24.3325 2.43335 26.7657 4.86661 26.7657 10.9498V18.2496C26.7657 24.3327 24.3325 26.766 18.2493 26.766Z" stroke="white" stroke-width="1.5" stroke-linecap="round" stroke-linejoin="round"/>
</svg>
