<svg width="175" height="28" viewBox="0 0 175 28" fill="none" xmlns="http://www.w3.org/2000/svg">
<g clip-path="url(#clip0_2164_294)">
<path d="M18.4456 0L5.67556 12.7518L4.38664 14.0378L0 18.4145V2.02084C0 0.907758 0.909822 0 2.02544 0H18.4456Z" fill="white"/>
<path d="M5.67556 15.3242L18.4022 28.0004H2.02544C0.909822 28.0004 0 27.1035 0 25.9904V21.0517C0 21.0193 0.0108312 20.9761 0.0433249 20.9545L5.67556 15.3242Z" fill="white"/>
<path d="M28.0635 2.1181V26.0116C28.0635 27.1139 27.1753 28 26.0705 28H20.9907L6.9751 14.0378L21.0232 0H25.9406C27.1103 0 28.0635 0.950984 28.0635 2.1181Z" fill="white"/>
<path d="M120.01 17.4419H123.443L115.298 0H112.276L104.131 17.4419H107.467L113.739 3.63103" fill="white"/>
<path d="M38.7867 0.119141H42.0469V8.82929L50.831 0.119141H54.8819L47.1484 7.56491L55.2177 17.4314H51.2426L44.9172 9.63979L42.0361 12.4063V17.4314H38.7759V0.119141H38.7867Z" fill="white"/>
<path d="M58.0015 0.119141H61.2617V14.6649H70.9989V17.4314H58.0015V0.119141Z" fill="white"/>
<path d="M74.5405 0.119141H77.8007V17.4314H74.5405V0.119141Z" fill="white"/>
<path d="M82.7397 0.119141H86.2057L91.838 8.31057L97.481 0.119141H100.947V17.4314H97.6977V5.02535L91.8488 13.1844H91.7405L85.9458 5.06858V17.4314H82.7397V0.119141Z" fill="white"/>
<path d="M128.794 2.93967H122.891V0.119141H137.947V2.93967H132.043V17.4314H128.783V2.93967H128.794Z" fill="white"/>
<path d="M141.337 0.119141H155.071V2.84241H144.586V7.34878H153.879V10.0937H144.586V14.7189H155.201V17.4422H141.337V0.119141Z" fill="white"/>
<path d="M174.74 0.119141L168.285 8.58074L175.011 17.4314H171.176L166.281 10.8285L161.407 17.4314H157.67L164.364 8.62396L157.93 0.119141H161.764L166.346 6.37618L171.003 0.119141H174.74Z" fill="white"/>
<path d="M38.7866 25.4276V25.4168C38.7866 24.0011 39.8914 22.834 41.4186 22.834C42.3609 22.834 42.935 23.1474 43.444 23.6229L43.0433 24.0335C42.5992 23.6337 42.1226 23.3527 41.4078 23.3527C40.2597 23.3527 39.3932 24.2497 39.3932 25.3952V25.406C39.3932 26.5623 40.2597 27.4592 41.4078 27.4592C42.1226 27.4592 42.5884 27.1999 43.0866 26.7352L43.4765 27.1026C42.9458 27.6321 42.3284 27.9779 41.3969 27.9779C39.8914 27.9888 38.7866 26.8541 38.7866 25.4276Z" fill="white"/>
<path d="M46.7584 22.9209H47.3433V27.384H50.2677V27.9028H46.7476V22.9209H46.7584Z" fill="white"/>
<path d="M53.6035 22.9209H54.1884V27.9028H53.6035V22.9209Z" fill="white"/>
<path d="M57.9473 22.9209H58.543L60.4384 25.6442L62.3339 22.9209H62.9296V27.9028H62.3447V23.8611L60.4493 26.5303H60.4168L58.5213 23.8611V27.892H57.9473V22.9209Z" fill="white"/>
<path d="M68.5508 22.877H69.1031L71.4752 27.902H70.8361L70.2296 26.5836H67.4026L66.7853 27.902H66.1787L68.5508 22.877ZM69.9913 26.0757L68.8107 23.5362L67.6193 26.0757H69.9913Z" fill="white"/>
<path d="M76.0676 23.4396H74.313V22.9209H78.4072V23.4396H76.6525V27.9028H76.0676V23.4396Z" fill="white"/>
<path d="M81.7109 22.9209H85.4694V23.4288H82.2958V25.1363H85.1336V25.6442H82.2958V27.3948H85.5127V27.9028H81.7109V22.9209Z" fill="white"/>
<path d="M94.0802 27.1997C93.6036 27.686 93.062 27.9778 92.3797 27.9778C91.4482 27.9778 90.7441 27.4159 90.7441 26.5838V26.573C90.7441 25.9137 91.1991 25.4383 92.0006 25.1357C91.6431 24.7358 91.4807 24.4332 91.4807 24.0442V24.0334C91.4807 23.3742 92.0331 22.8555 92.8562 22.8555C93.5819 22.8555 94.1235 23.3634 94.1235 23.9794V23.9902C94.1235 24.6278 93.6577 25.0276 92.8996 25.287L94.091 26.4433C94.3184 26.1191 94.5242 25.7516 94.7192 25.3302L95.2066 25.5463C94.9791 26.0218 94.7409 26.4325 94.4592 26.7999L95.3691 27.686L94.925 28.0102L94.0802 27.1997ZM93.7227 26.8539L92.3363 25.4815C91.6431 25.73 91.3399 26.1191 91.3399 26.5513V26.5621C91.3399 27.0917 91.7839 27.5023 92.423 27.5023C92.9212 27.5023 93.3436 27.243 93.7227 26.8539ZM93.5711 24.001V23.9902C93.5711 23.5903 93.257 23.2985 92.8346 23.2985C92.358 23.2985 92.0439 23.6119 92.0439 24.0226V24.0334C92.0439 24.3252 92.1739 24.5521 92.5638 24.952C93.2245 24.725 93.5711 24.4224 93.5711 24.001Z" fill="white"/>
<path d="M102.128 23.4396H100.373V22.9209H104.467V23.4396H102.713V27.9028H102.128V23.4396Z" fill="white"/>
<path d="M107.76 22.9209H111.518V23.4288H108.345V25.1363H111.182V25.6442H108.345V27.3948H111.562V27.9028H107.76V22.9209Z" fill="white"/>
<path d="M114.735 25.4276V25.4168C114.735 24.0011 115.84 22.834 117.367 22.834C118.31 22.834 118.884 23.1474 119.393 23.6229L118.992 24.0335C118.548 23.6337 118.071 23.3527 117.357 23.3527C116.208 23.3527 115.342 24.2497 115.342 25.3952V25.406C115.342 26.5623 116.208 27.4592 117.357 27.4592C118.071 27.4592 118.537 27.1999 119.035 26.7352L119.425 27.1026C118.895 27.6321 118.277 27.9779 117.346 27.9779C115.851 27.9888 114.735 26.8541 114.735 25.4276Z" fill="white"/>
<path d="M122.707 22.9209H123.292V25.1363H126.292V22.9209H126.877V27.9028H126.292V25.655H123.292V27.9028H122.707V22.9209Z" fill="white"/>
<path d="M130.581 22.9209H131.133L134.415 26.9194V22.9209H134.989V27.9028H134.524L131.166 23.8179V27.9028H130.592V22.9209H130.581Z" fill="white"/>
<path d="M138.456 25.4276V25.4168C138.456 24.0443 139.539 22.834 141.12 22.834C142.701 22.834 143.763 24.0227 143.763 25.3952V25.406C143.763 26.7784 142.68 27.9888 141.098 27.9888C139.517 27.9888 138.456 26.8 138.456 25.4276ZM143.145 25.4276V25.4168C143.145 24.2821 142.279 23.3635 141.098 23.3635C139.907 23.3635 139.062 24.2713 139.062 25.406V25.4168C139.062 26.5515 139.929 27.47 141.109 27.47C142.301 27.47 143.145 26.5623 143.145 25.4276Z" fill="white"/>
<path d="M147.229 22.9209H147.813V27.384H150.738V27.9028H147.218V22.9209H147.229Z" fill="white"/>
<path d="M153.792 25.4276V25.4168C153.792 24.0443 154.876 22.834 156.457 22.834C158.038 22.834 159.1 24.0227 159.1 25.3952V25.406C159.1 26.7784 158.017 27.9888 156.435 27.9888C154.854 27.9888 153.792 26.8 153.792 25.4276ZM158.493 25.4276V25.4168C158.493 24.2821 157.627 23.3635 156.446 23.3635C155.255 23.3635 154.41 24.2713 154.41 25.406V25.4168C154.41 26.5515 155.276 27.47 156.457 27.47C157.638 27.47 158.493 26.5623 158.493 25.4276Z" fill="white"/>
<path d="M162.338 25.4276V25.4168C162.338 24.0443 163.389 22.834 164.949 22.834C165.826 22.834 166.368 23.0717 166.887 23.4932L166.508 23.9255C166.118 23.5904 165.653 23.3527 164.927 23.3527C163.779 23.3527 162.945 24.2821 162.945 25.3952V25.406C162.945 26.5947 163.736 27.4808 165.003 27.4808C165.599 27.4808 166.151 27.2647 166.508 26.9837V25.741H164.927V25.2331H167.072V27.2215C166.584 27.6429 165.869 27.9888 164.981 27.9888C163.346 27.9888 162.338 26.8541 162.338 25.4276Z" fill="white"/>
<path d="M172.249 25.936L170.083 22.9209H170.797L172.552 25.4172L174.318 22.9209H175L172.834 25.9251V27.9028H172.238V25.936H172.249Z" fill="white"/>
</g>
<defs>
<clipPath id="clip0_2164_294">
<rect width="175" height="28" fill="white"/>
</clipPath>
</defs>
</svg>
