<svg width="45" height="45" viewBox="0 0 45 45" fill="none" xmlns="http://www.w3.org/2000/svg">
<path d="M40.9028 34.1261C40.9028 34.7963 40.7539 35.4851 40.4374 36.1554C40.1209 36.8256 39.7113 37.4586 39.1714 38.0544C38.2591 39.0597 37.2538 39.7858 36.1181 40.2512C35.0011 40.7167 33.7909 40.9587 32.4877 40.9587C30.5887 40.9587 28.5594 40.5119 26.4184 39.5996C24.2774 38.6874 22.1364 37.4586 20.014 35.9133C17.873 34.3495 15.8436 32.618 13.9074 30.7004C11.9898 28.7642 10.2584 26.7349 8.71313 24.6125C7.18649 22.4901 5.95774 20.3677 5.06409 18.2639C4.17045 16.1415 3.72363 14.1122 3.72363 12.176C3.72363 10.91 3.94704 9.69986 4.39386 8.58281C4.84068 7.44714 5.54815 6.40456 6.53488 5.47368C7.7264 4.30078 9.02963 3.72363 10.4073 3.72363C10.9286 3.72363 11.4499 3.83534 11.9153 4.05875C12.3994 4.28216 12.8276 4.61727 13.1627 5.10133L17.482 11.1893C17.8171 11.6547 18.0591 12.0829 18.2267 12.4925C18.3942 12.8835 18.4873 13.2744 18.4873 13.6282C18.4873 14.075 18.357 14.5218 18.0964 14.95C17.8543 15.3782 17.5006 15.825 17.0538 16.2718L15.6388 17.7426C15.4341 17.9474 15.341 18.1895 15.341 18.4873C15.341 18.6363 15.3596 18.7666 15.3968 18.9155C15.4527 19.0645 15.5085 19.1762 15.5458 19.2879C15.8809 19.9023 16.458 20.7028 17.2772 21.6709C18.115 22.639 19.0086 23.6258 19.9767 24.6125C20.9821 25.5992 21.9502 26.5115 22.9369 27.3493C23.905 28.1684 24.7056 28.727 25.3386 29.0621C25.4317 29.0993 25.5434 29.1552 25.6737 29.211C25.8226 29.2669 25.9716 29.2855 26.1391 29.2855C26.4556 29.2855 26.6977 29.1738 26.9025 28.969L28.3174 27.5727C28.7828 27.1072 29.2296 26.7535 29.6578 26.5301C30.0861 26.2695 30.5143 26.1391 30.9797 26.1391C31.3334 26.1391 31.7058 26.2136 32.1154 26.3812C32.5249 26.5487 32.9532 26.7908 33.4186 27.1072L39.581 31.4824C40.065 31.8175 40.4002 32.2084 40.605 32.6739C40.7911 33.1393 40.9028 33.6048 40.9028 34.1261Z" stroke="white" stroke-width="1.5" stroke-miterlimit="10"/>
<path d="M34.4424 16.7559C34.4424 15.6388 33.5674 13.926 32.2642 12.5297C31.0726 11.2451 29.4901 10.2397 27.9263 10.2397" stroke="white" stroke-width="1.5" stroke-linecap="round" stroke-linejoin="round"/>
<path d="M40.9585 16.7559C40.9585 9.55092 35.1313 3.72363 27.9263 3.72363" stroke="white" stroke-width="1.5" stroke-linecap="round" stroke-linejoin="round"/>
</svg>
