<svg width="52" height="51" viewBox="0 0 52 51" fill="none" xmlns="http://www.w3.org/2000/svg">
<g clip-path="url(#clip0_2173_551)">
<path d="M26 51C40.3594 51 52 39.5833 52 25.5C52 11.4167 40.3594 0 26 0C11.6406 0 0 11.4167 0 25.5C0 39.5833 11.6406 51 26 51Z" fill="#3EA3DC"/>
<path d="M38.9156 30.9495C38.7472 30.6969 37.628 30.1626 37.628 30.1626C37.1823 29.9489 33.9038 28.3752 33.2897 28.1518C32.7647 27.9672 32.1606 27.7535 31.6257 28.5403C31.2196 29.1329 30.031 30.4929 29.6348 30.9203C29.3674 31.2215 29.1099 31.3186 28.5057 31.0272C28.4066 30.9786 25.4847 29.7546 23.4741 28.006C21.6912 26.4615 20.4531 24.5478 19.9975 23.7998C19.7202 23.3432 19.8985 23.1295 20.2451 22.7895C20.4531 22.5855 21.3842 21.4878 21.4535 21.3906C21.6021 21.1672 21.8596 20.6426 21.8596 20.6426C22.127 20.1278 21.9586 19.6809 21.8101 19.3798C21.7011 19.1758 20.0272 15.2026 19.8588 14.8335C19.3834 13.7163 18.8684 13.658 18.383 13.6775C18.1453 13.6969 15.9167 13.7066 15.2135 14.4643L15.0847 14.5906C14.3914 15.3095 12.9453 16.8152 12.9453 19.7198C12.9453 20.39 13.0543 21.0895 13.2821 21.8666C13.6981 23.2655 14.5004 24.8003 15.5701 26.1992C15.5899 26.2283 17.2242 28.4432 18.0364 29.366C20.6116 32.2706 23.5137 34.4175 26.4455 35.5443C30.1895 36.982 31.7941 37.3123 32.7053 37.3123C33.1015 37.3123 33.9434 37.118 34.1217 37.0986C35.2706 37.0015 37.9846 35.6123 38.559 34.0483C39.1137 32.5718 39.1236 31.2798 38.9156 30.9495Z" fill="white"/>
</g>
<defs>
<clipPath id="clip0_2173_551">
<rect width="52" height="51" fill="white"/>
</clipPath>
</defs>
</svg>
